<svg id="visual" viewBox="0 0 900 600" width="900" height="600" xmlns="http://www.w3.org/2000/svg" xmlns:xlink="http://www.w3.org/1999/xlink" version="1.1"><rect x="0" y="0" width="900" height="600" fill="#002233"></rect><path d="M0 398L21.5 403.2C43 408.3 86 418.7 128.8 414.7C171.7 410.7 214.3 392.3 257.2 400.2C300 408 343 442 385.8 465C428.7 488 471.3 500 514.2 503C557 506 600 500 642.8 480C685.7 460 728.3 426 771.2 418.8C814 411.7 857 431.3 878.5 441.2L900 451L900 601L878.5 601C857 601 814 601 771.2 601C728.3 601 685.7 601 642.8 601C600 601 557 601 514.2 601C471.3 601 428.7 601 385.8 601C343 601 300 601 257.2 601C214.3 601 171.7 601 128.8 601C86 601 43 601 21.5 601L0 601Z" fill="#0066FF" stroke-linecap="round" stroke-linejoin="miter"></path></svg>