<svg id="visual" viewBox="0 0 900 600" width="900" height="600" xmlns="http://www.w3.org/2000/svg" xmlns:xlink="http://www.w3.org/1999/xlink" version="1.1"><path d="M0 271L37.5 271.3C75 271.7 150 272.3 225 282.3C300 292.3 375 311.7 450 326.7C525 341.7 600 352.3 675 349.5C750 346.7 825 330.3 862.5 322.2L900 314L900 601L862.5 601C825 601 750 601 675 601C600 601 525 601 450 601C375 601 300 601 225 601C150 601 75 601 37.5 601L0 601Z" fill="#75DDDD" stroke-linecap="round" stroke-linejoin="miter"></path></svg>