<svg id="visual" viewBox="0 0 900 600" width="900" height="600" xmlns="http://www.w3.org/2000/svg" xmlns:xlink="http://www.w3.org/1999/xlink" version="1.1"><path d="M0 395L25 382C50 369 100 343 150 336.7C200 330.3 250 343.7 300 358.2C350 372.7 400 388.3 450 375.7C500 363 550 322 600 321.8C650 321.7 700 362.3 750 376.5C800 390.7 850 378.3 875 372.2L900 366L900 601L875 601C850 601 800 601 750 601C700 601 650 601 600 601C550 601 500 601 450 601C400 601 350 601 300 601C250 601 200 601 150 601C100 601 50 601 25 601L0 601Z" fill="#0066FF" stroke-linecap="round" stroke-linejoin="miter"></path></svg>